<?xml version="1.0" encoding="utf-8"?>
<svg xmlns="http://www.w3.org/2000/svg" viewBox="56.0934 39.084 308.6198 356.9365" width="308.6198px" height="356.9365px"><g id="object-0" transform="matrix(0.9999999999999999, 0, 0, 0.9999999999999999, 0, -1.4210854715202004e-14)"><g id="g58" transform="matrix(0.834003, 0, 0, 0.834003, 46.337662, 1.501967)"><polyline class="st1" points="209,241.5 208.5,241.2 0,361.8 190.3,472.1 209,482.4 229.6,469.9 299.9,429.3 417.1,361.8    209,241.5  " id="polyline24" style="fill:#20abcd;fill-opacity:1" transform="matrix(0.88718867,0,0,0.88718867,11.697451,45.062226)"/><linearGradient id="SVGID_2_" gradientUnits="userSpaceOnUse" x1="509.9407" y1="455.358" x2="119.4325" y2="177.83411"><stop offset="0" style="stop-color:#FFFFFF" id="stop25"/><stop offset="1" style="stop-color:#CDCCCC" id="stop26"/></linearGradient><polygon class="st2" points="208.5,241.2 209,241.5 " id="polygon26" style="fill:url(#SVGID_2_)" transform="matrix(0.88718867,0,0,0.88718867,11.697451,45.062226)"/><polygon class="st3" points="208.5,241.2 208.5,241.2 209,240.9 209,240.9 209,0 189.9,10.2 0,120.6 0,361.8 208.5,241.2 " id="polygon28" style="fill:#cccccc" transform="matrix(0.88718867,0,0,0.88718867,11.697451,45.062226)"/><polygon class="st4" points="209,241.5 209,241.5 417.1,361.8 417.1,120.6 230,12.5 209,0 209,240.9 209.1,240.9 209.1,241.5 " id="polygon30" style="fill:#e6e6e6" transform="matrix(0.88718867,0,0,0.88718867,11.697451,45.062226)"/><linearGradient id="SVGID_5_" gradientUnits="userSpaceOnUse" x1="219.27" y1="265.5744" x2="88.0401" y2="-39.8936"><stop offset="0" style="stop-color:#FFFFFF" id="stop31"/><stop offset="1" style="stop-color:#E7E6E6" id="stop32"/></linearGradient><polygon class="st5" points="208.5,241.2 209,240.9 " id="polygon32" style="fill:url(#SVGID_5_)" transform="matrix(0.88718867,0,0,0.88718867,11.697451,45.062226)"/><linearGradient id="SVGID_6_" gradientUnits="userSpaceOnUse" x1="509.9314" y1="455.11319" x2="119.5807" y2="177.70129"><stop offset="0" style="stop-color:#FFFFFF" id="stop33"/><stop offset="1" style="stop-color:#CDCCCC" id="stop34"/></linearGradient><polygon class="st6" points="208.5,241.2 209,240.9 " id="polygon34" style="fill:url(#SVGID_6_)" transform="matrix(0.88718867,0,0,0.88718867,11.697451,45.062226)"/><linearGradient id="SVGID_7_" gradientUnits="userSpaceOnUse" x1="219.4294" y1="265.31879" x2="89.044197" y2="-38.182899"><stop offset="0" style="stop-color:#FFFFFF" id="stop35"/><stop offset="1" style="stop-color:#E7E6E6" id="stop36"/></linearGradient><polygon class="st7" points="209.1,241.5 209.1,240.9 209,240.9 209,241.5 " id="polygon36" style="fill:url(#SVGID_7_)" transform="matrix(0.88718867,0,0,0.88718867,11.697451,45.062226)"/><linearGradient id="SVGID_8_" gradientUnits="userSpaceOnUse" x1="510.11359" y1="455.12701" x2="119.5976" y2="177.5976"><stop offset="0" style="stop-color:#FFFFFF" id="stop37"/><stop offset="1" style="stop-color:#CDCCCC" id="stop38"/></linearGradient><polygon class="st8" points="209.1,241.5 209.1,240.9 209,240.9 209,241.5 " id="polygon38" style="fill:url(#SVGID_8_)" transform="matrix(0.88718867,0,0,0.88718867,11.697451,45.062226)"/><linearGradient id="SVGID_9_" gradientUnits="userSpaceOnUse" x1="219.2493" y1="265.4043" x2="88.8283" y2="-38.180698"><stop offset="0" style="stop-color:#FFFFFF" id="stop39"/><stop offset="1" style="stop-color:#E7E6E6" id="stop40"/></linearGradient><polygon class="st9" points="209,241.5 209,240.9 208.5,241.2 " id="polygon40" style="fill:url(#SVGID_9_)" transform="matrix(0.88718867,0,0,0.88718867,11.697451,45.062226)"/><linearGradient id="SVGID_10_" gradientUnits="userSpaceOnUse" x1="510.0607" y1="455.15161" x2="119.5755" y2="177.6441"><stop offset="0" style="stop-color:#FFFFFF" id="stop41"/><stop offset="1" style="stop-color:#CDCCCC" id="stop42"/></linearGradient><polygon class="st10" points="209,241.5 209,240.9 208.5,241.2 " id="polygon42" style="fill:url(#SVGID_10_)" transform="matrix(0.88718867,0,0,0.88718867,11.697451,45.062226)"/><linearGradient id="SVGID_11_" gradientUnits="userSpaceOnUse" x1="279.16281" y1="290.7056" x2="138.9679" y2="191.0728"><stop offset="0" style="stop-color:#FFFFFF" id="stop43"/><stop offset="1" style="stop-color:#CDCCCC" id="stop44"/></linearGradient><rect x="209.10001" y="240.89999" class="st11" width="0" height="0.1" id="rect44" style="fill:url(#SVGID_11_)"/><linearGradient id="SVGID_12_" gradientUnits="userSpaceOnUse" x1="279.16281" y1="290.7056" x2="138.9679" y2="191.0728"><stop offset="0" style="stop-color:#FFFFFF" id="stop45"/><stop offset="1" style="stop-color:#CDCCCC" id="stop46"/></linearGradient><rect x="209.10001" y="240.89999" class="st12" width="0" height="0.1" id="rect46" style="fill:url(#SVGID_12_)"/><linearGradient id="SVGID_13_" gradientUnits="userSpaceOnUse" x1="219.77409" y1="265.83051" x2="200.2646" y2="220.4176"><stop offset="0" style="stop-color:#FFFFFF" id="stop47"/><stop offset="1" style="stop-color:#E7E6E6" id="stop48"/></linearGradient><rect x="209.10001" y="240.89999" class="st13" width="0" height="0.1" id="rect48" style="fill:url(#SVGID_13_)"/><linearGradient id="SVGID_14_" gradientUnits="userSpaceOnUse" x1="279.16281" y1="290.7056" x2="138.9679" y2="191.0728"><stop offset="0" style="stop-color:#FFFFFF" id="stop49"/><stop offset="1" style="stop-color:#CDCCCC" id="stop50"/></linearGradient><rect x="209.10001" y="240.89999" class="st14" width="0" height="0.1" id="rect50" style="fill:url(#SVGID_14_)"/><linearGradient id="SVGID_15_" gradientUnits="userSpaceOnUse" x1="510.715" y1="455.3454" x2="253.63139" y2="272.64291"><stop offset="0" style="stop-color:#FFFFFF" id="stop51"/><stop offset="1" style="stop-color:#CDCCCC" id="stop52"/></linearGradient><polygon class="st15" points="" id="polygon52" style="fill:url(#SVGID_15_)"/><linearGradient id="SVGID_16_" gradientUnits="userSpaceOnUse" x1="510.715" y1="455.3454" x2="253.63139" y2="272.64291"><stop offset="0" style="stop-color:#FFFFFF" id="stop53"/><stop offset="1" style="stop-color:#CDCCCC" id="stop54"/></linearGradient><polygon class="st16" points="" id="polygon54" style="fill:url(#SVGID_16_)"/><linearGradient id="SVGID_17_" gradientUnits="userSpaceOnUse" x1="219.3269" y1="264.97391" x2="184.0871" y2="182.94501"><stop offset="0" style="stop-color:#FFFFFF" id="stop55"/><stop offset="1" style="stop-color:#E7E6E6" id="stop56"/></linearGradient><polygon class="st17" points="" id="polygon56" style="fill:url(#SVGID_17_)"/><linearGradient id="SVGID_18_" gradientUnits="userSpaceOnUse" x1="510.715" y1="455.3454" x2="253.63139" y2="272.64291"><stop offset="0" style="stop-color:#FFFFFF" id="stop57"/><stop offset="1" style="stop-color:#CDCCCC" id="stop58"/></linearGradient><polygon class="st18" points="" id="polygon58" style="fill:url(#SVGID_18_)"/></g><g id="g66" transform="matrix(0.739918, 0, 0, 0.739918, 56.093376, -11.751131)"><linearGradient id="SVGID_19_" gradientUnits="userSpaceOnUse" x1="282.63211" y1="329.30481" x2="168.77831" y2="202.05659"><stop offset="0" style="stop-color:#4E4D4D" id="stop59"/><stop offset="1" style="stop-color:#000000" id="stop60"/></linearGradient><polyline class="st19" points="208.5,310.5 208.5,310.5 319.2,246.5 220,189.1 208.8,182.5 198.6,187.9 97.8,246.5 208.5,310.5     " id="polyline60" style="fill:url(#SVGID_19_)"/><linearGradient id="SVGID_20_" gradientUnits="userSpaceOnUse" x1="203.44679" y1="305.0816" x2="213.6178" y2="315.93069"><stop offset="0" style="stop-color:#4E4D4D" id="stop61"/><stop offset="1" style="stop-color:#000000" id="stop62"/></linearGradient><polygon class="st20" points="" id="polygon62" style="fill:url(#SVGID_20_)"/><linearGradient id="SVGID_21_" gradientUnits="userSpaceOnUse" x1="135.91029" y1="409.39771" x2="162.7614" y2="305.28131"><stop offset="0" style="stop-color:#4E4D4D" id="stop63"/><stop offset="1" style="stop-color:#000000" id="stop64"/></linearGradient><polygon class="st21" points="97.8,374.5 198.9,433.1 208.5,438.4 208.5,310.5 97.8,246.5 " id="polygon64" style="fill:url(#SVGID_21_)"/><linearGradient id="SVGID_22_" gradientUnits="userSpaceOnUse" x1="307.7265" y1="432.86511" x2="241.7838" y2="296.8587"><stop offset="0" style="stop-color:#4E4D4D" id="stop65"/><stop offset="1" style="stop-color:#000000" id="stop66"/></linearGradient><polygon class="st22" points="208.5,310.5 208.5,438.4 208.8,438.6 219.7,431.9 319.2,374.5 319.2,246.5 " id="polygon66" style="fill:url(#SVGID_22_)"/></g></g></svg>