<?xml version="1.0" encoding="UTF-8" standalone="no"?>
<!-- Generator: Adobe Illustrator 24.2.0, SVG Export Plug-In . SVG Version: 6.00 Build 0)  -->

<svg
   version="1.1"
   id="Capa_1"
   x="0px"
   y="0px"
   viewBox="0 0 1375 482.4"
   style="enable-background:new 0 0 1375 482.4;"
   xml:space="preserve"
   sodipodi:docname="logo_bbx_2026.svg"
   inkscape:version="1.3.2 (091e20e, 2023-11-25)"
   xmlns:inkscape="http://www.inkscape.org/namespaces/inkscape"
   xmlns:sodipodi="http://sodipodi.sourceforge.net/DTD/sodipodi-0.dtd"
   xmlns="http://www.w3.org/2000/svg"
   xmlns:svg="http://www.w3.org/2000/svg"><defs
   id="defs66" /><sodipodi:namedview
   id="namedview66"
   pagecolor="#ffffff"
   bordercolor="#000000"
   borderopacity="0.25"
   inkscape:showpageshadow="2"
   inkscape:pageopacity="0.0"
   inkscape:pagecheckerboard="0"
   inkscape:deskcolor="#d1d1d1"
   inkscape:zoom="0.51252024"
   inkscape:cx="718.99599"
   inkscape:cy="288.76908"
   inkscape:window-width="1920"
   inkscape:window-height="1027"
   inkscape:window-x="0"
   inkscape:window-y="25"
   inkscape:window-maximized="1"
   inkscape:current-layer="g58" />
<style
   type="text/css"
   id="style1">
	.st0{fill:#FFFFFF;}
	.st1{fill:url(#SVGID_1_);}
	.st2{fill:url(#SVGID_2_);}
	.st3{fill:url(#SVGID_3_);}
	.st4{fill:url(#SVGID_4_);}
	.st5{fill:url(#SVGID_5_);}
	.st6{fill:url(#SVGID_6_);}
	.st7{fill:url(#SVGID_7_);}
	.st8{fill:url(#SVGID_8_);}
	.st9{fill:url(#SVGID_9_);}
	.st10{fill:url(#SVGID_10_);}
	.st11{fill:url(#SVGID_11_);}
	.st12{fill:url(#SVGID_12_);}
	.st13{fill:url(#SVGID_13_);}
	.st14{fill:url(#SVGID_14_);}
	.st15{fill:url(#SVGID_15_);}
	.st16{fill:url(#SVGID_16_);}
	.st17{fill:url(#SVGID_17_);}
	.st18{fill:url(#SVGID_18_);}
	.st19{fill:url(#SVGID_19_);}
	.st20{fill:url(#SVGID_20_);}
	.st21{fill:url(#SVGID_21_);}
	.st22{fill:url(#SVGID_22_);}
</style>
<g
   id="g8"
   style="fill:#1a1a1a"
   transform="matrix(0.92076264,0,0,0.92076264,26.58154,18.154575)">
	<path
   class="st0"
   d="m 552.1,210.6 c 10.9,5.2 17.7,15.5 17.7,28.1 0,18.7 -16.1,32.8 -37.4,32.8 H 479.2 V 156.2 h 52.1 c 20.5,0 35.4,12.5 35.4,29.5 0,10.3 -5.8,19.6 -14.6,24.9 z m -13.7,24.3 c 0,-6.1 -4.5,-10.4 -11.4,-10.4 h -17.3 v 21 H 527 c 6.9,0 11.4,-4.4 11.4,-10.6 z M 536.5,191 c 0,-6 -4.1,-10 -10.7,-10 h -16.1 v 20 h 16.1 c 6.6,0 10.7,-4 10.7,-10 z"
   id="path1"
   style="fill:#1a1a1a" />
	<path
   class="st0"
   d="m 659.7,242.4 v 29.1 H 586.5 V 156.2 h 32.2 v 86.2 z"
   id="path2"
   style="fill:#1a1a1a" />
	<path
   class="st0"
   d="m 750.7,252.8 h -40.9 l -6.4,18.7 h -34 l 45.3,-115.3 h 31.1 L 792,271.5 h -35 z m -20.5,-60.6 -12.6,35.7 H 743 Z"
   id="path3"
   style="fill:#1a1a1a" />
	<path
   class="st0"
   d="m 853,274.5 c -35.1,0 -61.3,-26 -61.3,-60.5 0,-34.7 26.2,-60.7 61.3,-60.7 30.2,0 53.6,20 58.3,49.2 H 879.1 C 875.1,190.7 865.2,183 853,183 c -16.3,0 -28.3,13.1 -28.3,31 0,17.8 12,30.7 28.3,30.7 12.8,0 22.9,-8.3 26.1,-21.2 h 32.5 c -4.3,30.4 -27.9,51 -58.6,51 z"
   id="path4"
   style="fill:#1a1a1a" />
	<path
   class="st0"
   d="m 991.7,271.5 -33.1,-51 v 51 H 926.8 V 156.2 h 31.8 v 48.6 l 30.5,-48.6 h 36.8 l -36.9,55.9 40.4,59.5 h -37.7 z"
   id="path5"
   style="fill:#1a1a1a" />
	<path
   class="st0"
   d="m 1111.3,210.6 c 10.9,5.2 17.7,15.5 17.7,28.1 0,18.7 -16.1,32.8 -37.4,32.8 h -53.2 V 156.2 h 52.1 c 20.5,0 35.4,12.5 35.4,29.5 0,10.3 -5.8,19.6 -14.6,24.9 z m -13.7,24.3 c 0,-6.1 -4.5,-10.4 -11.4,-10.4 h -17.3 v 21 h 17.3 c 6.9,0 11.4,-4.4 11.4,-10.6 z m -1.9,-43.9 c 0,-6 -4.1,-10 -10.7,-10 h -16.1 v 20 h 16.1 c 6.6,0 10.7,-4 10.7,-10 z"
   id="path6"
   style="fill:#1a1a1a" />
	<path
   class="st0"
   d="m 1203.2,274.5 c -37.1,0 -63.5,-25.3 -63.5,-60.6 0,-35.2 26.5,-60.6 63.5,-60.6 37,0 63.3,25.2 63.3,60.6 0,35.3 -26.4,60.6 -63.3,60.6 z m 0,-29.6 c 17.6,0 30.3,-13 30.3,-31 0,-18 -12.7,-31 -30.3,-31 -17.6,0 -30.5,13.1 -30.5,31 0,17.9 12.9,31 30.5,31 z"
   id="path7"
   style="fill:#1a1a1a" />
	<path
   class="st0"
   d="m 1339,271.5 -19,-35.4 -19.2,35.4 h -36 l 34.7,-60 -32.8,-55.3 h 35.8 l 17.3,32.6 17.4,-32.6 h 35.4 l -32.4,55.9 34.7,59.5 H 1339 Z"
   id="path8"
   style="fill:#1a1a1a" />
</g>
<g
   id="g23"
   style="fill:#1a1a1a"
   transform="matrix(0.92076264,0,0,0.92076264,26.58154,18.154575)">
	<path
   class="st0"
   d="m 496.4,301.4 c 14.6,0 25.2,10.4 25.2,24.8 0,14.4 -10.6,24.9 -25.2,24.9 h -16.6 v -49.7 z m 18.8,24.8 c 0,-11 -7.9,-19 -19,-19 H 486 v 38 h 10.1 c 11.2,0.1 19.1,-8 19.1,-19 z"
   id="path9"
   style="fill:#1a1a1a" />
	<path
   class="st0"
   d="m 572.8,345.1 v 6 H 543.9 V 301.4 H 572 v 5.9 h -21.9 v 15.4 h 20.1 v 5.8 h -20.1 v 16.7 h 22.7 z"
   id="path10"
   style="fill:#1a1a1a" />
	<path
   class="st0"
   d="M 634.8,301.4 615,351.1 h -5.7 l -20.1,-49.7 h 6.9 l 16.1,40.3 15.8,-40.3 z"
   id="path11"
   style="fill:#1a1a1a" />
	<path
   class="st0"
   d="m 684.1,345.1 v 6 h -28.9 v -49.7 h 28.1 v 5.9 h -21.9 v 15.4 h 20.1 v 5.8 h -20.1 v 16.7 h 22.7 z"
   id="path12"
   style="fill:#1a1a1a" />
	<path
   class="st0"
   d="m 734.5,345.3 v 5.8 h -28.1 v -49.7 h 6.2 v 43.8 h 21.9 z"
   id="path13"
   style="fill:#1a1a1a" />
	<path
   class="st0"
   d="m 748.5,326.3 c 0,-14.7 11,-25.7 26,-25.7 15,0 26,11 26,25.7 0,14.7 -11,25.7 -26,25.7 -15,0 -26,-11.1 -26,-25.7 z m 45.7,0 c 0,-11.2 -8.3,-19.6 -19.6,-19.6 -11.3,0 -19.6,8.5 -19.6,19.6 0,11.1 8.3,19.6 19.6,19.6 11.2,-0.1 19.6,-8.4 19.6,-19.6 z"
   id="path14"
   style="fill:#1a1a1a" />
	<path
   class="st0"
   d="m 857.1,317.3 c 0,9.1 -7,15.9 -16.5,15.9 H 829 v 17.9 h -6.2 v -49.7 h 17.8 c 9.4,0 16.5,6.8 16.5,15.9 z m -6.3,0 c 0,-5.7 -4.4,-9.9 -10.5,-9.9 H 829 v 19.8 h 11.3 c 6.1,0 10.5,-4.2 10.5,-9.9 z"
   id="path15"
   style="fill:#1a1a1a" />
	<path
   class="st0"
   d="m 928.9,351.1 -6.5,-38.8 -17.1,37.5 h -1.7 l -17.1,-37.5 -6.5,38.8 h -6.4 l 8.4,-49.7 h 6 l 16.4,36.5 16.5,-36.5 h 6.1 l 8.2,49.7 z"
   id="path16"
   style="fill:#1a1a1a" />
	<path
   class="st0"
   d="m 986.3,345.1 v 6 h -28.9 v -49.7 h 28.1 v 5.9 h -21.9 v 15.4 h 20.1 v 5.8 h -20.1 v 16.7 h 22.7 z"
   id="path17"
   style="fill:#1a1a1a" />
	<path
   class="st0"
   d="m 1048.3,301.4 v 49.7 h -5.3 l -28.3,-38.8 v 38.8 h -6.1 v -49.7 h 5.6 l 27.9,38.3 v -38.3 z"
   id="path18"
   style="fill:#1a1a1a" />
	<path
   class="st0"
   d="M 1105.1,307.2 H 1090 V 351 h -6.2 v -43.8 h -15.1 v -5.8 h 36.5 v 5.8 z"
   id="path19"
   style="fill:#1a1a1a" />
	<path
   class="st0"
   d="m 1182.6,307.2 h -15.1 V 351 h -6.2 v -43.8 h -15.1 v -5.8 h 36.5 v 5.8 z"
   id="path20"
   style="fill:#1a1a1a" />
	<path
   class="st0"
   d="m 1231.9,345.1 v 6 H 1203 v -49.7 h 28.1 v 5.9 h -21.9 v 15.4 h 20.1 v 5.8 h -20.1 v 16.7 h 22.7 z"
   id="path21"
   style="fill:#1a1a1a" />
	<path
   class="st0"
   d="m 1284.1,339.2 h -23.9 l -4.9,11.9 h -6.6 l 20.3,-49.7 h 5.8 l 20.9,49.7 h -6.8 z m -21.6,-5.7 h 19.2 L 1272,310 Z"
   id="path22"
   style="fill:#1a1a1a" />
	<path
   class="st0"
   d="m 1367.4,351.1 -6.5,-38.8 -17.1,37.5 h -1.7 l -17.1,-37.5 -6.5,38.8 h -6.4 l 8.4,-49.7 h 6 l 16.4,36.5 16.5,-36.5 h 6.1 l 8.2,49.7 z"
   id="path23"
   style="fill:#1a1a1a" />
</g>
<g
   id="g58"
   transform="matrix(0.83400329,0,0,0.83400329,55.223787,36.034566)">
	<linearGradient
   id="SVGID_1_"
   gradientUnits="userSpaceOnUse"
   x1="453.0463"
   y1="535.54993"
   x2="62.4566"
   y2="257.96811">
		<stop
   offset="0"
   style="stop-color:#2DABE3"
   id="stop23" />
		<stop
   offset="1"
   style="stop-color:#05AB9E"
   id="stop24" />
	</linearGradient>
	<polyline
   class="st1"
   points="209,241.5 208.5,241.2 0,361.8 190.3,472.1 209,482.4 229.6,469.9 299.9,429.3 417.1,361.8    209,241.5  "
   id="polyline24"
   style="fill:#20abcd;fill-opacity:1"
   transform="matrix(0.88718867,0,0,0.88718867,11.697451,45.062226)" />
	<linearGradient
   id="SVGID_2_"
   gradientUnits="userSpaceOnUse"
   x1="509.9407"
   y1="455.358"
   x2="119.4325"
   y2="177.83411">
		<stop
   offset="0"
   style="stop-color:#FFFFFF"
   id="stop25" />
		<stop
   offset="1"
   style="stop-color:#CDCCCC"
   id="stop26" />
	</linearGradient>
	<polygon
   class="st2"
   points="208.5,241.2 209,241.5 "
   id="polygon26"
   style="fill:url(#SVGID_2_)"
   transform="matrix(0.88718867,0,0,0.88718867,11.697451,45.062226)" />
	<linearGradient
   id="SVGID_3_"
   gradientUnits="userSpaceOnUse"
   x1="174.4583"
   y1="381.24789"
   x2="85.080704"
   y2="125.2107">
		<stop
   offset="0"
   style="stop-color:#E7E6E6"
   id="stop27" />
		<stop
   offset="1"
   style="stop-color:#B4B4B4"
   id="stop28" />
	</linearGradient>
	<polygon
   class="st3"
   points="208.5,241.2 208.5,241.2 209,240.9 209,240.9 209,0 189.9,10.2 0,120.6 0,361.8 208.5,241.2 "
   id="polygon28"
   style="fill:#cccccc"
   transform="matrix(0.88718867,0,0,0.88718867,11.697451,45.062226)" />
	<linearGradient
   id="SVGID_4_"
   gradientUnits="userSpaceOnUse"
   x1="294.15329"
   y1="256.22739"
   x2="347.24219"
   y2="44.543301">
		<stop
   offset="0"
   style="stop-color:#E7E6E6"
   id="stop29" />
		<stop
   offset="1"
   style="stop-color:#B4B4B4"
   id="stop30" />
	</linearGradient>
	<polygon
   class="st4"
   points="209,241.5 209,241.5 417.1,361.8 417.1,120.6 230,12.5 209,0 209,240.9 209.1,240.9 209.1,241.5 "
   id="polygon30"
   style="fill:#e6e6e6"
   transform="matrix(0.88718867,0,0,0.88718867,11.697451,45.062226)" />
	<linearGradient
   id="SVGID_5_"
   gradientUnits="userSpaceOnUse"
   x1="219.27"
   y1="265.5744"
   x2="88.0401"
   y2="-39.8936">
		<stop
   offset="0"
   style="stop-color:#FFFFFF"
   id="stop31" />
		<stop
   offset="1"
   style="stop-color:#E7E6E6"
   id="stop32" />
	</linearGradient>
	<polygon
   class="st5"
   points="208.5,241.2 209,240.9 "
   id="polygon32"
   style="fill:url(#SVGID_5_)"
   transform="matrix(0.88718867,0,0,0.88718867,11.697451,45.062226)" />
	<linearGradient
   id="SVGID_6_"
   gradientUnits="userSpaceOnUse"
   x1="509.9314"
   y1="455.11319"
   x2="119.5807"
   y2="177.70129">
		<stop
   offset="0"
   style="stop-color:#FFFFFF"
   id="stop33" />
		<stop
   offset="1"
   style="stop-color:#CDCCCC"
   id="stop34" />
	</linearGradient>
	<polygon
   class="st6"
   points="208.5,241.2 209,240.9 "
   id="polygon34"
   style="fill:url(#SVGID_6_)"
   transform="matrix(0.88718867,0,0,0.88718867,11.697451,45.062226)" />
	<linearGradient
   id="SVGID_7_"
   gradientUnits="userSpaceOnUse"
   x1="219.4294"
   y1="265.31879"
   x2="89.044197"
   y2="-38.182899">
		<stop
   offset="0"
   style="stop-color:#FFFFFF"
   id="stop35" />
		<stop
   offset="1"
   style="stop-color:#E7E6E6"
   id="stop36" />
	</linearGradient>
	<polygon
   class="st7"
   points="209.1,241.5 209.1,240.9 209,240.9 209,241.5 "
   id="polygon36"
   style="fill:url(#SVGID_7_)"
   transform="matrix(0.88718867,0,0,0.88718867,11.697451,45.062226)" />
	<linearGradient
   id="SVGID_8_"
   gradientUnits="userSpaceOnUse"
   x1="510.11359"
   y1="455.12701"
   x2="119.5976"
   y2="177.5976">
		<stop
   offset="0"
   style="stop-color:#FFFFFF"
   id="stop37" />
		<stop
   offset="1"
   style="stop-color:#CDCCCC"
   id="stop38" />
	</linearGradient>
	<polygon
   class="st8"
   points="209.1,241.5 209.1,240.9 209,240.9 209,241.5 "
   id="polygon38"
   style="fill:url(#SVGID_8_)"
   transform="matrix(0.88718867,0,0,0.88718867,11.697451,45.062226)" />
	<linearGradient
   id="SVGID_9_"
   gradientUnits="userSpaceOnUse"
   x1="219.2493"
   y1="265.4043"
   x2="88.8283"
   y2="-38.180698">
		<stop
   offset="0"
   style="stop-color:#FFFFFF"
   id="stop39" />
		<stop
   offset="1"
   style="stop-color:#E7E6E6"
   id="stop40" />
	</linearGradient>
	<polygon
   class="st9"
   points="209,241.5 209,240.9 208.5,241.2 "
   id="polygon40"
   style="fill:url(#SVGID_9_)"
   transform="matrix(0.88718867,0,0,0.88718867,11.697451,45.062226)" />
	<linearGradient
   id="SVGID_10_"
   gradientUnits="userSpaceOnUse"
   x1="510.0607"
   y1="455.15161"
   x2="119.5755"
   y2="177.6441">
		<stop
   offset="0"
   style="stop-color:#FFFFFF"
   id="stop41" />
		<stop
   offset="1"
   style="stop-color:#CDCCCC"
   id="stop42" />
	</linearGradient>
	<polygon
   class="st10"
   points="209,241.5 209,240.9 208.5,241.2 "
   id="polygon42"
   style="fill:url(#SVGID_10_)"
   transform="matrix(0.88718867,0,0,0.88718867,11.697451,45.062226)" />
	<linearGradient
   id="SVGID_11_"
   gradientUnits="userSpaceOnUse"
   x1="279.16281"
   y1="290.7056"
   x2="138.9679"
   y2="191.0728">
		<stop
   offset="0"
   style="stop-color:#FFFFFF"
   id="stop43" />
		<stop
   offset="1"
   style="stop-color:#CDCCCC"
   id="stop44" />
	</linearGradient>
	<rect
   x="209.10001"
   y="240.89999"
   class="st11"
   width="0"
   height="0.1"
   id="rect44"
   style="fill:url(#SVGID_11_)" />
	<linearGradient
   id="SVGID_12_"
   gradientUnits="userSpaceOnUse"
   x1="279.16281"
   y1="290.7056"
   x2="138.9679"
   y2="191.0728">
		<stop
   offset="0"
   style="stop-color:#FFFFFF"
   id="stop45" />
		<stop
   offset="1"
   style="stop-color:#CDCCCC"
   id="stop46" />
	</linearGradient>
	<rect
   x="209.10001"
   y="240.89999"
   class="st12"
   width="0"
   height="0.1"
   id="rect46"
   style="fill:url(#SVGID_12_)" />
	<linearGradient
   id="SVGID_13_"
   gradientUnits="userSpaceOnUse"
   x1="219.77409"
   y1="265.83051"
   x2="200.2646"
   y2="220.4176">
		<stop
   offset="0"
   style="stop-color:#FFFFFF"
   id="stop47" />
		<stop
   offset="1"
   style="stop-color:#E7E6E6"
   id="stop48" />
	</linearGradient>
	<rect
   x="209.10001"
   y="240.89999"
   class="st13"
   width="0"
   height="0.1"
   id="rect48"
   style="fill:url(#SVGID_13_)" />
	<linearGradient
   id="SVGID_14_"
   gradientUnits="userSpaceOnUse"
   x1="279.16281"
   y1="290.7056"
   x2="138.9679"
   y2="191.0728">
		<stop
   offset="0"
   style="stop-color:#FFFFFF"
   id="stop49" />
		<stop
   offset="1"
   style="stop-color:#CDCCCC"
   id="stop50" />
	</linearGradient>
	<rect
   x="209.10001"
   y="240.89999"
   class="st14"
   width="0"
   height="0.1"
   id="rect50"
   style="fill:url(#SVGID_14_)" />
	<linearGradient
   id="SVGID_15_"
   gradientUnits="userSpaceOnUse"
   x1="510.715"
   y1="455.3454"
   x2="253.63139"
   y2="272.64291">
		<stop
   offset="0"
   style="stop-color:#FFFFFF"
   id="stop51" />
		<stop
   offset="1"
   style="stop-color:#CDCCCC"
   id="stop52" />
	</linearGradient>
	<polygon
   class="st15"
   points=""
   id="polygon52"
   style="fill:url(#SVGID_15_)" />
	<linearGradient
   id="SVGID_16_"
   gradientUnits="userSpaceOnUse"
   x1="510.715"
   y1="455.3454"
   x2="253.63139"
   y2="272.64291">
		<stop
   offset="0"
   style="stop-color:#FFFFFF"
   id="stop53" />
		<stop
   offset="1"
   style="stop-color:#CDCCCC"
   id="stop54" />
	</linearGradient>
	<polygon
   class="st16"
   points=""
   id="polygon54"
   style="fill:url(#SVGID_16_)" />
	<linearGradient
   id="SVGID_17_"
   gradientUnits="userSpaceOnUse"
   x1="219.3269"
   y1="264.97391"
   x2="184.0871"
   y2="182.94501">
		<stop
   offset="0"
   style="stop-color:#FFFFFF"
   id="stop55" />
		<stop
   offset="1"
   style="stop-color:#E7E6E6"
   id="stop56" />
	</linearGradient>
	<polygon
   class="st17"
   points=""
   id="polygon56"
   style="fill:url(#SVGID_17_)" />
	<linearGradient
   id="SVGID_18_"
   gradientUnits="userSpaceOnUse"
   x1="510.715"
   y1="455.3454"
   x2="253.63139"
   y2="272.64291">
		<stop
   offset="0"
   style="stop-color:#FFFFFF"
   id="stop57" />
		<stop
   offset="1"
   style="stop-color:#CDCCCC"
   id="stop58" />
	</linearGradient>
	<polygon
   class="st18"
   points=""
   id="polygon58"
   style="fill:url(#SVGID_18_)" />
</g>
<g
   id="g66"
   transform="matrix(0.73991827,0,0,0.73991827,64.979499,22.781466)">
	<linearGradient
   id="SVGID_19_"
   gradientUnits="userSpaceOnUse"
   x1="282.63211"
   y1="329.30481"
   x2="168.77831"
   y2="202.05659">
		<stop
   offset="0"
   style="stop-color:#4E4D4D"
   id="stop59" />
		<stop
   offset="1"
   style="stop-color:#000000"
   id="stop60" />
	</linearGradient>
	<polyline
   class="st19"
   points="208.5,310.5 208.5,310.5 319.2,246.5 220,189.1 208.8,182.5 198.6,187.9 97.8,246.5 208.5,310.5     "
   id="polyline60"
   style="fill:url(#SVGID_19_)" />
	<linearGradient
   id="SVGID_20_"
   gradientUnits="userSpaceOnUse"
   x1="203.44679"
   y1="305.0816"
   x2="213.6178"
   y2="315.93069">
		<stop
   offset="0"
   style="stop-color:#4E4D4D"
   id="stop61" />
		<stop
   offset="1"
   style="stop-color:#000000"
   id="stop62" />
	</linearGradient>
	<polygon
   class="st20"
   points=""
   id="polygon62"
   style="fill:url(#SVGID_20_)" />
	<linearGradient
   id="SVGID_21_"
   gradientUnits="userSpaceOnUse"
   x1="135.91029"
   y1="409.39771"
   x2="162.7614"
   y2="305.28131">
		<stop
   offset="0"
   style="stop-color:#4E4D4D"
   id="stop63" />
		<stop
   offset="1"
   style="stop-color:#000000"
   id="stop64" />
	</linearGradient>
	<polygon
   class="st21"
   points="97.8,374.5 198.9,433.1 208.5,438.4 208.5,310.5 97.8,246.5 "
   id="polygon64"
   style="fill:url(#SVGID_21_)" />
	<linearGradient
   id="SVGID_22_"
   gradientUnits="userSpaceOnUse"
   x1="307.7265"
   y1="432.86511"
   x2="241.7838"
   y2="296.8587">
		<stop
   offset="0"
   style="stop-color:#4E4D4D"
   id="stop65" />
		<stop
   offset="1"
   style="stop-color:#000000"
   id="stop66" />
	</linearGradient>
	<polygon
   class="st22"
   points="208.5,310.5 208.5,438.4 208.8,438.6 219.7,431.9 319.2,374.5 319.2,246.5 "
   id="polygon66"
   style="fill:url(#SVGID_22_)" />
</g>
</svg>
